<svg id="Layer_1" data-name="Layer 1" xmlns="http://www.w3.org/2000/svg" viewBox="0 0 24.41 32"><defs><style>.cls-1{fill:#ffa41b;}</style></defs><path class="cls-1" d="M7.66,21.05a1.11,1.11,0,0,1-.59-1.15c0-.15,0-.31,0-.47A.41.41,0,0,0,6.71,19c-.23-.06-.46-.11-.69-.18a1,1,0,0,1-.7-1.2q.07-.34.18-.69a.42.42,0,0,0-.25-.58c-.18-.09-.37-.2-.55-.31a1,1,0,0,1-.4-1.39c.15-.32.44-.65.4-.95s-.41-.5-.64-.76a1,1,0,0,1,0-1.4c.23-.25.6-.48.64-.76s-.25-.6-.4-.9A1,1,0,0,1,4.72,8.4c.84-.51.84-.51.62-1.47a1,1,0,0,1,.78-1.32c1.08-.3,1-.13,1-1.25A1,1,0,0,1,8.15,3.28c1.08,0,.95.17,1.25-1a1,1,0,0,1,1.33-.77c1,.22,1,.22,1.46-.62A1,1,0,0,1,13.65.54c.88.47.88.47,1.58-.2a1,1,0,0,1,1.54,0c.69.66.69.66,1.55.2A1,1,0,0,1,19.83,1c.54.94.36.86,1.37.58a1,1,0,0,1,1.4.82c.28,1,.12.89,1.17.9a1,1,0,0,1,1.15,1.17c0,1-.07.89.85,1.13s1.06.66.84,1.48-.31.78.53,1.27A1.05,1.05,0,0,1,27.59,10c-.49.85-.52.67.2,1.4a1,1,0,0,1,0,1.68l-.05,0c-.67.64-.59.55-.17,1.27a1.08,1.08,0,0,1-.46,1.73c-.12.07-.23.14-.34.19a.45.45,0,0,0-.26.65,4,4,0,0,1,.16.57,1,1,0,0,1-.75,1.27c-1.06.3-1,.07-1,1.26a1.18,1.18,0,0,1-.56,1c.53,1.11,1.05,2.22,1.57,3.32s1,2.19,1.56,3.28a.74.74,0,0,1-.89,1.11c-1.12-.22-2.24-.42-3.37-.65a.46.46,0,0,0-.58.28c-.52,1-1.08,2-1.61,3-.17.32-.36.56-.74.56s-.59-.28-.74-.61Q18,28,16.46,24.77a.78.78,0,0,0-.38-.36c-.27-.11-.37.11-.48.33l-3.39,6.68c-.16.33-.35.59-.76.58s-.56-.27-.72-.58c-.51-1-1.05-2-1.55-3.06a.4.4,0,0,0-.52-.25l-3.35.55c-.35.05-.69.09-.93-.25a.84.84,0,0,1,0-1c1-2,2-4,3.06-6Zm.9-17.11H8.28c-.44,0-.54.11-.54.53a2.61,2.61,0,0,0,0,.28c0,.94-.16,1.17-1.07,1.41s-.79.21-.57,1l0,.11a1.08,1.08,0,0,1-.61,1.47c-.8.45-.8.45-.34,1.23A1.1,1.1,0,0,1,5,11.57c-.65.63-.65.63,0,1.27a1.08,1.08,0,0,1,.22,1.58c-.47.81-.47.81.33,1.26a1.07,1.07,0,0,1,.61,1.47c-.24.89-.24.89.66,1.13a1,1,0,0,1,1,1.23c0,.94,0,.94.95.94a1.06,1.06,0,0,1,1.23,1c.23.9.23.9,1.13.66a1.08,1.08,0,0,1,1.47.6c.46.8.46.8,1.26.33a1.07,1.07,0,0,1,1.55.2c.69.69.61.73,1.33,0A1.06,1.06,0,0,1,18.17,23c.87.51.82.56,1.34-.37A1,1,0,0,1,20.86,22c1,.3,1,.31,1.23-.7a1,1,0,0,1,1.16-.89c1.08,0,1,0,1-1a1,1,0,0,1,.87-1.13c1.11-.28,1-.26.72-1.26a1,1,0,0,1,.55-1.32c.92-.52.94-.43.38-1.36A1,1,0,0,1,27,12.9c.77-.76.75-.66,0-1.41a1,1,0,0,1-.2-1.42c.54-.92.63-.84-.37-1.4a1,1,0,0,1-.55-1.29c.24-1,.24-1-.76-1.29A1,1,0,0,1,24.25,5c0-1.2,0-1.09-1.09-1.09a1,1,0,0,1-1.05-.81c-.29-1.17-.27-1-1.3-.76a1,1,0,0,1-1.27-.52c-.55-.95-.41-1-1.45-.38a1,1,0,0,1-1.33-.17c-.86-.89-.73-.78-1.53,0a1,1,0,0,1-1.29.19l-.58-.34a.36.36,0,0,0-.59.15c-.12.21-.23.41-.36.61a1,1,0,0,1-1.15.48c-.24-.05-.48-.13-.72-.19a.35.35,0,0,0-.48.28c0,.12-.07.25-.1.38C9.72,3.77,9.5,4,8.56,3.94ZM4.92,28,5.35,28l3.47-.57a.72.72,0,0,1,.82.4c.08.14.15.28.22.42l1.59,3.11a1,1,0,0,0,.12-.14c1.17-2.31,2.35-4.62,3.51-6.94a.45.45,0,0,0-.06-.39c-.45-.52-.49-.52-1-.18-.13.07-.25.15-.38.21a1,1,0,0,1-1.4-.4c-.52-.85-.52-.85-1.5-.63a1,1,0,0,1-1.3-.77,2.19,2.19,0,0,0-.16-.57.8.8,0,0,0-.41-.38.45.45,0,0,0-.59.28c-1,2.08-2.1,4.15-3.15,6.23Zm22,.11c-.06-.15-.09-.25-.13-.34-1-2.12-2-4.22-3-6.35-.16-.34-.39-.32-.67-.32s-.38.19-.42.43c-.26,1.45-.93,1.54-2,1.15a.44.44,0,0,0-.64.27c-.46,1.06-1.11,1.42-2.27.59a.41.41,0,0,0-.63.06c-.17.2-.39.32-.21.69,1,2.08,2,4.17,3,6.26.11.22.21.44.34.73l.25-.44,1.64-3a.74.74,0,0,1,.91-.44l1.28.24Z" transform="translate(-3.79)"/><path class="cls-1" d="M16,21.49a9.29,9.29,0,1,1,9.3-9.23A9.26,9.26,0,0,1,16,21.49Zm8.69-9.29a8.69,8.69,0,1,0-8.62,8.69A8.7,8.7,0,0,0,24.73,12.2Z" transform="translate(-3.79)"/><path class="cls-1" d="M9.62,16.81a.88.88,0,0,1-.38-.3.74.74,0,0,1-.14-.44h.43a.52.52,0,0,0,.18.36.64.64,0,0,0,.46.15.69.69,0,0,0,.45-.14.48.48,0,0,0,.17-.37.39.39,0,0,0-.1-.29.59.59,0,0,0-.24-.17l-.4-.13a3.7,3.7,0,0,1-.49-.15.77.77,0,0,1-.31-.26.7.7,0,0,1-.14-.46.84.84,0,0,1,.13-.44,1,1,0,0,1,.36-.31,1.33,1.33,0,0,1,.54-.1,1.08,1.08,0,0,1,.71.22.79.79,0,0,1,.32.57h-.45a.45.45,0,0,0-.19-.31.63.63,0,0,0-.43-.14.6.6,0,0,0-.41.14.41.41,0,0,0-.16.36.43.43,0,0,0,.09.28.67.67,0,0,0,.24.16,3.49,3.49,0,0,0,.39.13,3.53,3.53,0,0,1,.49.16.87.87,0,0,1,.32.25.75.75,0,0,1,.14.47.79.79,0,0,1-.12.42.83.83,0,0,1-.36.33,1.37,1.37,0,0,1-1.1,0Z" transform="translate(-3.79)"/><path class="cls-1" d="M12.19,14.13v1h1.13v.33H12.19v1.07h1.27v.33H11.79v-3.1h1.67v.34Z" transform="translate(-3.79)"/><path class="cls-1" d="M14.47,16.56h1.08v.33H14.07V13.8h.4Z" transform="translate(-3.79)"/><path class="cls-1" d="M16.39,16.56h1.08v.33H16V13.8h.4Z" transform="translate(-3.79)"/><path class="cls-1" d="M18.31,14.13v1h1.12v.33H18.31v1.07h1.26v.33H17.9v-3.1h1.67v.34Z" transform="translate(-3.79)"/><path class="cls-1" d="M21.81,16.89l-.74-1.26h-.49v1.26h-.4V13.8h1a1.32,1.32,0,0,1,.59.12.87.87,0,0,1,.36.32,1,1,0,0,1-.06,1,1,1,0,0,1-.55.33l.77,1.29ZM20.58,15.3h.6a.66.66,0,0,0,.49-.16.58.58,0,0,0,.17-.43.55.55,0,0,0-.17-.43.68.68,0,0,0-.49-.15h-.6Z" transform="translate(-3.79)"/><path class="cls-1" d="M12.44,10.88a1,1,0,0,1,.21.61,1,1,0,0,1-.35.8,1.53,1.53,0,0,1-1,.29H9.46v-4h1.8a1.45,1.45,0,0,1,1,.28.9.9,0,0,1,.34.75.94.94,0,0,1-.18.59,1,1,0,0,1-.49.32A1,1,0,0,1,12.44,10.88Zm-2-.68h.64a.58.58,0,0,0,.37-.1.4.4,0,0,0,.12-.31.42.42,0,0,0-.12-.32.58.58,0,0,0-.37-.1h-.64Zm1.1,1.48a.38.38,0,0,0,.13-.32.39.39,0,0,0-.14-.33.56.56,0,0,0-.38-.12h-.71v.89h.72A.56.56,0,0,0,11.53,11.68Z" transform="translate(-3.79)"/><path class="cls-1" d="M14.18,9.37v.8h1.3v.76h-1.3v.87h1.47v.78H13.21v-4h2.44v.78Z" transform="translate(-3.79)"/><path class="cls-1" d="M17,12.48a1.34,1.34,0,0,1-.56-.42,1.17,1.17,0,0,1-.22-.67h1a.45.45,0,0,0,.15.33.49.49,0,0,0,.34.12.49.49,0,0,0,.34-.1.31.31,0,0,0,.13-.27.33.33,0,0,0-.1-.25.89.89,0,0,0-.25-.16,3.12,3.12,0,0,0-.41-.14,4.22,4.22,0,0,1-.63-.24,1.27,1.27,0,0,1-.42-.35,1,1,0,0,1-.18-.61,1,1,0,0,1,.41-.87,1.9,1.9,0,0,1,2.11,0,1.13,1.13,0,0,1,.44.87H18.08a.37.37,0,0,0-.14-.3.52.52,0,0,0-.33-.11.44.44,0,0,0-.29.09.37.37,0,0,0-.11.27.36.36,0,0,0,.18.31,3.47,3.47,0,0,0,.57.23,5.49,5.49,0,0,1,.63.25,1.16,1.16,0,0,1,.42.35.89.89,0,0,1,.18.58A1.1,1.1,0,0,1,19,12a1.16,1.16,0,0,1-.5.45,1.73,1.73,0,0,1-.78.16A2.13,2.13,0,0,1,17,12.48Z" transform="translate(-3.79)"/><path class="cls-1" d="M22.66,8.59v.78H21.6v3.21h-1V9.37H19.57V8.59Z" transform="translate(-3.79)"/></svg>