<svg id="Layer_1" data-name="Layer 1" xmlns="http://www.w3.org/2000/svg" xmlns:xlink="http://www.w3.org/1999/xlink" viewBox="0 0 30.29 33.13"><defs><style>.cls-1{fill:none;}.cls-2{fill:#00d0b0;}.cls-3{fill:#3e2714;}.cls-4{clip-path:url(#clip-path);}.cls-5{fill:#80c8c5;}.cls-6{fill:#76bfbb;}.cls-7{fill:#fff;}.cls-8{fill:#eaeaeb;}.cls-9{fill:#2d1c10;}.cls-10{fill:#d7c3ac;}.cls-11{fill:#f1dfc6;}.cls-12{fill:#d0b7a0;}.cls-13{fill:#ddc8b4;}.cls-14{fill:#593924;}.cls-15{fill:#6d6c6d;}.cls-16{fill:#7d7e77;}.cls-17{fill:#8a8a82;}.cls-18{fill:#4d4c4d;}.cls-19{fill:#fffae9;}.cls-20{fill:#ee7c6b;}</style><clipPath id="clip-path" transform="translate(-0.85)"><path class="cls-1" d="M31.12,18a13,13,0,0,1-.6,3.34,14.87,14.87,0,0,1-3.1,5.57A15.26,15.26,0,0,1,3.55,25.56,14.84,14.84,0,0,1,1,18.77C.62,15.92,31.13,17.56,31.12,18Z"/></clipPath></defs><ellipse class="cls-2" cx="15.15" cy="17.04" rx="15.15" ry="14.96"/><path class="cls-3" d="M25.54,22.87h0S25.55,22.89,25.54,22.87Z" transform="translate(-0.85)"/><g class="cls-4"><path class="cls-5" d="M20.17,20.91H12.32a7.81,7.81,0,0,0-8.18,7.93c3.24,5.72,21,5.72,24.21,0A7.81,7.81,0,0,0,20.17,20.91Z" transform="translate(-0.85)"/><path class="cls-6" d="M15.76,33.13c5.4.09,10.92-1.34,12.59-4.29a7.81,7.81,0,0,0-8.18-7.93H16Z" transform="translate(-0.85)"/><path class="cls-7" d="M15.72,23.45a23,23,0,0,1-2.05-1.58,4.62,4.62,0,0,1-.87-1.2c-.54-1-.65-2.05-2-1.53a3.16,3.16,0,0,0-1.7,3,3.55,3.55,0,0,0,3.3,3.76C14.61,25.91,16.2,23.83,15.72,23.45Z" transform="translate(-0.85)"/><path class="cls-8" d="M15.77,23.45a23,23,0,0,0,2.05-1.58,4.62,4.62,0,0,0,.87-1.2c.54-1,.65-2.05,2-1.53a3.16,3.16,0,0,1,1.7,3,3.55,3.55,0,0,1-3.3,3.76C16.88,25.91,15.29,23.83,15.77,23.45Z" transform="translate(-0.85)"/><path class="cls-7" d="M16.18,27.27a.38.38,0,1,1-.37-.36A.37.37,0,0,1,16.18,27.27Z" transform="translate(-0.85)"/><path class="cls-7" d="M16.18,29.41a.38.38,0,1,1-.37-.36A.37.37,0,0,1,16.18,29.41Z" transform="translate(-0.85)"/><path class="cls-7" d="M16.18,31.87a.38.38,0,0,1-.75,0,.38.38,0,0,1,.75,0Z" transform="translate(-0.85)"/></g><path class="cls-3" d="M5.37,22.88h0S5.35,22.89,5.37,22.88Z" transform="translate(-0.85)"/><path class="cls-9" d="M26.18,21.4a2.81,2.81,0,0,0,1-.63,8.27,8.27,0,0,1-2.07-1.44c-.6-.87-1.17-4.86-1.37-5.86-.5-2.47-.62-5-1.16-7.47a7.76,7.76,0,0,0-2.82-4.32A5.9,5.9,0,0,0,14.44.11,7.57,7.57,0,0,0,9.16,3.45,7.19,7.19,0,0,0,7.91,6.29a18.16,18.16,0,0,0-.59,4.53c0,1.66-.41,7.5-1.11,8.51a8.64,8.64,0,0,1-2.07,1.44,2.68,2.68,0,0,0,1,.63c.79.2,1.65-.31.76.68a6.7,6.7,0,0,1-.68.59l1.49.78,1.78-1.37.28,2.48a9.69,9.69,0,0,0,2.79.47l.5-1.37.89,1.16a12,12,0,0,0,1.79-.63s-1.06-2.53-.11-3.53H16.7c.95,1-.11,3.53-.11,3.53a11.63,11.63,0,0,0,1.78.63l.9-1.16.5,1.37a9.69,9.69,0,0,0,2.79-.47l.28-2.48,1.78,1.37,1.49-.78a6.7,6.7,0,0,1-.68-.59C24.54,21.09,25.39,21.6,26.18,21.4Z" transform="translate(-0.85)"/><path class="cls-10" d="M18.43,21.74s-1.3-.78-.82-4.43H14.25s.27,3.77-.7,4.4C13.55,21.71,15.52,25.45,18.43,21.74Z" transform="translate(-0.85)"/><path class="cls-11" d="M9.89,6.14a4.94,4.94,0,0,1,.88-1.38c1.39-1.87,6.46-4,9.69,1.83.55,1,.28,3.19.26,4.15s0,1.94-.14,2.9a4,4,0,0,1-.39,1.75s-1.72,2.89-4.06,3.26c-1,.17-4.71-1.17-5.52-3.49a16.87,16.87,0,0,1-1-4A19.37,19.37,0,0,1,9.61,8,8.89,8.89,0,0,1,9.89,6.14Z" transform="translate(-0.85)"/><path class="cls-12" d="M15.89,23.33c.73,0,1.6-.39,2.58-1.64,0,0-1.3-.78-.81-4.43H16" transform="translate(-0.85)"/><path class="cls-13" d="M20.23,15.34a8.24,8.24,0,0,1-2.63,2.72c-.47.28-1.74,1-2.21.49s-.15-1.41-.2-2c-.3-3-.06-6.12-.19-9.17-.06-1.22-.1-2.44-.27-3.64-.06-.41-.14-.63.24-.83.91-.49,2.28.2,3,.71a8.18,8.18,0,0,1,2.5,2.89c.55,1,.28,3.19.27,4.14s-.05,2-.14,2.91A4,4,0,0,1,20.23,15.34Z" transform="translate(-0.85)"/><path class="cls-14" d="M9.49,10.77c0,.06,2.6-2.1,2.94-2.36a6.41,6.41,0,0,0,1.31-1.34,13.79,13.79,0,0,1,1-1.71,4,4,0,0,0-.31,1,15.16,15.16,0,0,1-.87,1.53,6.61,6.61,0,0,0,2-.86A4.26,4.26,0,0,0,17.2,5a4.94,4.94,0,0,0,.71,2.52,3.71,3.71,0,0,0,1.94,1.32,1.27,1.27,0,0,1-.14-.8,7.94,7.94,0,0,1,1.23,3.31c.69-.7.64-2.29.47-3.22a8.92,8.92,0,0,0-1.55-3.74,6,6,0,0,0-4.48-2.58c-2.17-.12-5.19,1.06-6,3.37a11.74,11.74,0,0,0-.54,3.13c-.06.7-.18,2,.48,2.44a1.17,1.17,0,0,0,.24.09" transform="translate(-0.85)"/><path class="cls-15" d="M9,12.21A13.29,13.29,0,0,1,8.62,5.1,6,6,0,0,1,13.3.94a7.46,7.46,0,0,1,7.52,2.51c1.26,1.53,2,5,.91,8.61l-.59-.18c.74-2.53.72-6.2-.79-8a6.87,6.87,0,0,0-6.92-2.29,5.37,5.37,0,0,0-4.22,3.7A12.9,12.9,0,0,0,9.53,12Z" transform="translate(-0.85)"/><path class="cls-16" d="M9.13,12.1c.08.83-.27,1.54-.77,1.58s-1-.59-1-1.42.26-1.54.77-1.58S9.05,11.27,9.13,12.1Z" transform="translate(-0.85)"/><path class="cls-17" d="M10.1,13.41a.63.63,0,0,1-.56.69l-.76.08a.63.63,0,0,1-.7-.55l-.32-2.84a.64.64,0,0,1,.57-.69L9.08,10a.63.63,0,0,1,.7.55Z" transform="translate(-0.85)"/><path class="cls-16" d="M21.34,12c-.06.83.3,1.53.8,1.57s1-.62,1-1.45-.31-1.53-.81-1.56S21.4,11.21,21.34,12Z" transform="translate(-0.85)"/><path class="cls-15" d="M18,17.4a14.16,14.16,0,0,1-1.62,0l0-.62c2.09.13,3.67-.15,4.13-.72A5.51,5.51,0,0,0,21,13.25l.64,0c0,.24.07,2.34-.62,3.21C20.48,17.12,19.2,17.35,18,17.4Z" transform="translate(-0.85)"/><path class="cls-18" d="M15.54,16.33a.64.64,0,0,0-.68.58V17a.64.64,0,0,0,.59.68l1,.07a.63.63,0,0,0,.68-.58v-.09a.63.63,0,0,0-.59-.67Z" transform="translate(-0.85)"/><path class="cls-17" d="M20.52,13.39a.63.63,0,0,0,.58.68l.76.06a.63.63,0,0,0,.68-.56l.26-2.85a.62.62,0,0,0-.57-.67L21.47,10a.63.63,0,0,0-.69.57Z" transform="translate(-0.85)"/><path class="cls-19" d="M16.68,15.6l.07,0c.05-.05.14-.13.13-.2s-.1-.07-.18-.07a2.91,2.91,0,0,0-.56.11c-.26,0-.52,0-.79,0a5.46,5.46,0,0,1-1,0,3.78,3.78,0,0,0-.81-.12c0,.11.12.28.19.37a.64.64,0,0,0,.32.18,2.51,2.51,0,0,0,.59.18,4.36,4.36,0,0,0,1.64-.21A1.33,1.33,0,0,0,16.68,15.6Z" transform="translate(-0.85)"/><path class="cls-20" d="M15.21,15.18l-.06,0v0l-.1,0a1.57,1.57,0,0,0-.65-.28c-.4,0-.75.3-1.15.34a2.07,2.07,0,0,0,1.95,1.11l.29,0a2.23,2.23,0,0,0,1.62-1.08c-.43,0-.79-.35-1.22-.32A1.69,1.69,0,0,0,15.21,15.18Zm1.28.42a4.7,4.7,0,0,1-1.4.31A3.68,3.68,0,0,1,14,15.6a3.22,3.22,0,0,1-.29-.26,13.71,13.71,0,0,0,1.43.22s1.42-.16,1.71-.23Z" transform="translate(-0.85)"/><path class="cls-3" d="M15.84,13.84c-.12-.17-.33,0-.47.06s-.57-.17-.86-.12c0,0,0,0,0,0s.19.17.32.22a1,1,0,0,0,.3.08.48.48,0,0,0,.29,0l.38-.15S15.87,13.87,15.84,13.84Z" transform="translate(-0.85)"/><path class="cls-3" d="M19.57,9.64c-.55-.53-1.18-.36-1.87-.26-.3,0-1,.09-.9.53a0,0,0,0,0,0,.06l0,.16a.08.08,0,0,0,.1,0c.61-.25,1.91-.93,2.54-.4C19.53,9.84,19.65,9.71,19.57,9.64Z" transform="translate(-0.85)"/><path class="cls-3" d="M11,9.92c.58-.58,1.93,0,2.57.14A.07.07,0,0,0,13.7,10l0-.16a.05.05,0,0,0-.05-.06c0-.44-.65-.42-.95-.43-.7,0-1.34-.13-1.84.45C10.84,9.88,11,10,11,9.92Z" transform="translate(-0.85)"/><path class="cls-3" d="M19.62,11a1.63,1.63,0,0,0-1.44-.37,1.58,1.58,0,0,0-.69.24,2.89,2.89,0,0,0-.51.35,1.68,1.68,0,0,0-.3.58s0,.06,0,.05a.2.2,0,0,0,.18-.1,1.76,1.76,0,0,1,.24-.3c-.22.22.31.68.5.7a1,1,0,0,0,.88-.66c.07-.29-.22-.51.22-.5a1.47,1.47,0,0,1,.7.24A.15.15,0,1,0,19.62,11Z" transform="translate(-0.85)"/><path class="cls-3" d="M10.88,11a1.62,1.62,0,0,1,1.45-.36,1.54,1.54,0,0,1,.68.24,2.34,2.34,0,0,1,.51.36,1.78,1.78,0,0,1,.3.58s0,.06,0,.06a.22.22,0,0,1-.18-.11,1.76,1.76,0,0,0-.24-.3c.22.23-.32.68-.51.69a1,1,0,0,1-.88-.67c-.06-.28.23-.51-.21-.5a1.58,1.58,0,0,0-.7.24C10.91,11.35,10.73,11.15,10.88,11Z" transform="translate(-0.85)"/></svg>