<svg id="Layer_1" data-name="Layer 1" xmlns="http://www.w3.org/2000/svg" viewBox="0 0 32 28.53"><defs><style>.cls-1{fill:#e8484c;}.cls-2{fill:#fff;}.cls-3{fill:#9dd0c4;}.cls-4{fill:#00d0b0;}</style></defs><path class="cls-1" d="M12.68,1.73a6.78,6.78,0,1,0,6.8,6.78A6.79,6.79,0,0,0,12.68,1.73Zm2.07,9.43a3.11,3.11,0,0,1-1.25.45v.55a.33.33,0,0,1-.33.33h-.6a.32.32,0,0,1-.32-.33v-.55A3.18,3.18,0,0,1,10.79,11a3.22,3.22,0,0,1-.64-.64.23.23,0,0,1-.07-.17.25.25,0,0,1,.15-.24l.61-.36h0A.69.69,0,0,1,11,9.53a.29.29,0,0,1,.26.13,2.47,2.47,0,0,0,1,.67V8.92A2.48,2.48,0,0,1,10.54,8a1.64,1.64,0,0,1-.32-.94,1.71,1.71,0,0,1,1.19-1.64,3,3,0,0,1,.84-.24V4.61a.32.32,0,0,1,.32-.33h.6a.33.33,0,0,1,.33.33v.63a2.68,2.68,0,0,1,1.61.88.24.24,0,0,1,0,.41L14.39,7h0a.59.59,0,0,1-.21.06.44.44,0,0,1-.28-.1,2,2,0,0,0-.4-.27V7.77a2.7,2.7,0,0,1,1.77.84,1.5,1.5,0,0,1,.33,1A1.79,1.79,0,0,1,14.75,11.16Z" transform="translate(0 -1.73)"/><path class="cls-2" d="M12.57,12.49h.6a.33.33,0,0,0,.33-.33v-.55a3.11,3.11,0,0,0,1.25-.45,1.79,1.79,0,0,0,.85-1.52,1.5,1.5,0,0,0-.33-1,2.7,2.7,0,0,0-1.77-.84V6.64a2,2,0,0,1,.4.27.44.44,0,0,0,.28.1A.59.59,0,0,0,14.39,7h0l.67-.42a.24.24,0,0,0,0-.41,2.68,2.68,0,0,0-1.61-.88V4.61a.33.33,0,0,0-.33-.33h-.6a.32.32,0,0,0-.32.33v.61a3,3,0,0,0-.84.24A1.71,1.71,0,0,0,10.22,7.1a1.64,1.64,0,0,0,.32.94,2.48,2.48,0,0,0,1.71.88v1.41a2.47,2.47,0,0,1-1-.67A.29.29,0,0,0,11,9.53a.69.69,0,0,0-.18.05h0l-.61.36a.25.25,0,0,0-.15.24.23.23,0,0,0,.07.17,3.22,3.22,0,0,0,.64.64,3.18,3.18,0,0,0,1.46.62v.55A.32.32,0,0,0,12.57,12.49Zm.93-3.41c.32.1.48.28.48.56a.67.67,0,0,1-.35.6l-.13.07Zm-1.65-2a.52.52,0,0,1,.35-.47l.05,0v1A.52.52,0,0,1,11.85,7.1Z" transform="translate(0 -1.73)"/><path class="cls-3" d="M11.85,7.1a.52.52,0,0,0,.4.51v-1l-.05,0A.52.52,0,0,0,11.85,7.1Z" transform="translate(0 -1.73)"/><path class="cls-3" d="M13.5,10.31l.13-.07a.67.67,0,0,0,.35-.6c0-.28-.16-.46-.48-.56Z" transform="translate(0 -1.73)"/><path class="cls-4" d="M32,20v0c-2.31,0-3.73-1.41-5.43-2.59A7.65,7.65,0,0,0,22,15.75c-.9,0-1.66,0-2.3,0H15a1.24,1.24,0,1,0,0,2.48h4.41a1.88,1.88,0,0,1,1.57,1.85,1.83,1.83,0,0,1-1,1.62l-1.72.46c-.58.14-1.13.29-1.65.43l-.11,0c-1.94.52-4,1.06-4.4,1.15a2.12,2.12,0,0,1-.68-.05l-7-4.49L3.2,18.35h0L3,18.25a1.78,1.78,0,0,0-.29-.12,2.27,2.27,0,0,0-.25-.06l-.27,0a1.37,1.37,0,0,0-.36,0,2,2,0,0,0-1.84,2,2,2,0,0,0,.6,1.41h0a1.94,1.94,0,0,0,.49.36l.48.35,10.89,7.87h0l.13.05a2.21,2.21,0,0,0,.78.15,2.31,2.31,0,0,0,.46-.05l.06,0c3.69-.93,11.32-2.87,14.89-3.74l.26-.1a14.39,14.39,0,0,1,2.93-.5v-.52h0V20Z" transform="translate(0 -1.73)"/></svg>