<svg id="Layer_1" data-name="Layer 1" xmlns="http://www.w3.org/2000/svg" viewBox="0 0 32 16.91"><defs><style>.cls-1{fill:#5e5e5d;opacity:0.4;}.cls-1,.cls-10,.cls-2,.cls-3,.cls-4,.cls-5,.cls-6,.cls-7,.cls-8,.cls-9{fill-rule:evenodd;}.cls-3{fill:#00d0b0;}.cls-4{fill:#e8484c;}.cls-11,.cls-5{fill:#fff;}.cls-6{fill:#f5f5d1;}.cls-7{fill:#f5a35e;}.cls-8{fill:#3a3a3a;}.cls-9{fill:#7a7a7a;}.cls-10{fill:#b1b3ba;}.cls-11{font-size:2.77px;font-family:Arial-Black, Arial;font-weight:800;}.cls-12{letter-spacing:-0.03em;}.cls-13{letter-spacing:0em;}.cls-14{letter-spacing:0.06em;}</style></defs><path class="cls-1" d="M32,23.56c0,.49-6.67.9-14.9.9s-14.89-.41-14.89-.9,6.67-.91,14.89-.91S32,23.06,32,23.56Z" transform="translate(0 -7.54)"/><path class="cls-2" d="M23.2,7.64V9h.51c1.05,0,2.11,0,3.17,0a.8.8,0,0,1,.75.42c.95,1.58,1.91,3.14,2.86,4.71a1.14,1.14,0,0,1,.12.55c0,2,0,4,0,6.06v.55a27,27,0,0,1-4.94,0c0-.16,0-.33,0-.5a4.94,4.94,0,0,0-.38-2.1,2.47,2.47,0,0,0-1.61-1.45,3.9,3.9,0,0,0-1.7-.05A2.77,2.77,0,0,0,20,19.68c-.07.53-.09,1.08-.14,1.69H14.3v-.64a4.58,4.58,0,0,0-.4-2.05,2.51,2.51,0,0,0-1.53-1.39,4,4,0,0,0-1.75-.06,2.79,2.79,0,0,0-2.06,2.5c0,.4-.06.8-.08,1.21,0,.13,0,.27,0,.44H5.68V18.5H0a2.27,2.27,0,0,1,.16-.34c.2-.26.42-.5.61-.77A.74.74,0,0,1,1.46,17H5.61v-.78c-.7-.11-1.41,0-2.19-.09.28-.46.5-.87.76-1.24a.51.51,0,0,1,.36-.15h1V13.7H2.8a3.43,3.43,0,0,1,.63-1.48H5.59V10.49H2.35a8.84,8.84,0,0,1,.79-1.28c.06-.09.21-.1.32-.1H5.62V7.57H6.2c2.08,0,4.16,0,6.24,0,2.68,0,5.37-.06,8-.07C21.37,7.54,22.24,7.61,23.2,7.64ZM6.78,18.52c0,.21,0,.37,0,.52,0,.55,0,.55-.47.57-.12,0-.29-.06-.37.15a6,6,0,0,0,2.29,0c.47-2,1.37-2.93,2.91-3a3,3,0,0,1,2.07.57,3.5,3.5,0,0,1,1.32,2.5h5.09c.35-2.18,1.56-3.05,3.27-3.1V8l-.28,0c-.86,0-1.73-.07-2.59-.07-2.07,0-4.13,0-6.2.06l-7.35,0H5.94V9.1h3.9c-.15.39-.29.7-.41,1a.47.47,0,0,1-.51.37c-.85,0-1.7,0-2.55,0l-.43,0V17l2.5.07c-.13.28-.21.48-.3.67-.23.53-.54.87-1.08.74A.81.81,0,0,0,6.78,18.52Zm22.09,1.2c.1-.8-.05-1.58.1-2.37h1.38c0-1,0-1.86,0-2.76a1.14,1.14,0,0,0-.18-.46L27.42,9.64a.57.57,0,0,0-.55-.34H23.49a2.08,2.08,0,0,0-.3,0c0,2.49,0,5,0,7.4a3.33,3.33,0,0,1,2.73,3ZM.61,18.12h7c.13-.22.25-.44.42-.75H7.44c-1.9,0-3.8,0-5.71,0A1.15,1.15,0,0,0,.61,18.12ZM9.35,9.4H3.73c-.51,0-.61.09-.81.77H6.35c.79,0,1.58,0,2.37,0a.42.42,0,0,0,.47-.35ZM30.29,20.11H26c0,.17,0,.31,0,.45V21A24.94,24.94,0,0,0,30.33,21c0-.16,0-.34,0-.51A2.24,2.24,0,0,0,30.29,20.11Zm-10.73.17a37,37,0,0,0-5,0V21h5Zm-11.39,0H6V21a7.22,7.22,0,0,0,2.19,0Zm-5-6.93H5.58v-.74c-.63,0-1.23,0-1.83,0a.36.36,0,0,0-.26.14C3.39,12.91,3.32,13.1,3.21,13.33ZM30.3,18.62H29.22v1.09H30.3ZM4,15.82H5.59v-.74c-.34,0-.64,0-1,0a.62.62,0,0,0-.33.19A5,5,0,0,0,4,15.82Zm25.23,2.39h1.12c0-.18,0-.33,0-.46H29.21Zm-22.74,1v-.72H6v.72Z" transform="translate(0 -7.54)"/><path class="cls-2" d="M22.82,23.58a2.71,2.71,0,0,1-2.55-2.77c0-1.66,1.14-3.2,2.47-3.16a2.79,2.79,0,0,1,2.51,2.77C25.26,22.34,23.88,23.66,22.82,23.58Zm2-3a2.18,2.18,0,0,0-2.07-2.36c-1.13-.1-2.14,1.16-2.11,2.56a2.16,2.16,0,0,0,2.09,2.33C23.88,23.15,24.86,21.84,24.85,20.53Z" transform="translate(0 -7.54)"/><path class="cls-2" d="M11.22,17.66a2.73,2.73,0,0,1,2.59,2.71c0,1.92-1.31,3.18-2.3,3.21a2.74,2.74,0,0,1-2.68-2.72C8.79,19.18,10,17.61,11.22,17.66Zm2.19,2.88a2.18,2.18,0,0,0-2.05-2.37c-1.14-.11-2.15,1.14-2.12,2.54a2.15,2.15,0,0,0,2.07,2.35C12.43,23.16,13.42,21.86,13.41,20.54Z" transform="translate(0 -7.54)"/><path class="cls-3" d="M6.78,18.52a.81.81,0,0,1,.28,0c.54.13.85-.21,1.08-.74.09-.19.17-.39.3-.67L5.94,17v-6.5l.43,0c.85,0,1.7,0,2.55,0a.47.47,0,0,0,.51-.37c.12-.32.26-.63.41-1H5.94V7.91h.53l7.35,0c2.07,0,4.13-.05,6.2-.06.86,0,1.73,0,2.59.07l.28,0v8.77c-1.71.05-2.92.92-3.27,3.1H14.53a3.5,3.5,0,0,0-1.32-2.5,3,3,0,0,0-2.07-.57c-1.54.09-2.44,1-2.91,3a6,6,0,0,1-2.29,0c.08-.21.25-.14.37-.15.47,0,.47,0,.47-.57C6.79,18.89,6.78,18.73,6.78,18.52Z" transform="translate(0 -7.54)"/><path class="cls-4" d="M28.87,19.72H25.94a3.33,3.33,0,0,0-2.73-3c0-2.45,0-4.91,0-7.4a2.08,2.08,0,0,1,.3,0h3.38a.57.57,0,0,1,.55.34l2.74,4.49a1.14,1.14,0,0,1,.18.46c0,.9,0,1.8,0,2.76H29C28.82,18.14,29,18.92,28.87,19.72Zm-5.11-4a27,27,0,0,0,5.84-.08,2.44,2.44,0,0,0-.12-1.31c-.74-1.24-1.47-2.47-2.2-3.72a.53.53,0,0,0-.51-.32l-2.59,0a1.88,1.88,0,0,0-.31.06C23.79,12.18,23.76,14,23.76,15.71Zm.2.72,0,.15c.57,0,1.13,0,1.7,0,0,0,.08-.12.15-.24a6,6,0,0,0-1.79-.07S24,16.38,24,16.43Z" transform="translate(0 -7.54)"/><path class="cls-5" d="M.61,18.12a1.15,1.15,0,0,1,1.12-.76c1.91,0,3.81,0,5.71,0H8c-.17.31-.29.53-.42.75Z" transform="translate(0 -7.54)"/><path class="cls-5" d="M9.35,9.4l-.16.42a.42.42,0,0,1-.47.35c-.79,0-1.58,0-2.37,0H2.92c.2-.68.3-.77.81-.77H9.35Z" transform="translate(0 -7.54)"/><path class="cls-4" d="M30.29,20.11a2.24,2.24,0,0,1,0,.34c0,.17,0,.35,0,.51A24.94,24.94,0,0,1,26,21v-.45c0-.14,0-.28,0-.45Z" transform="translate(0 -7.54)"/><path class="cls-4" d="M19.56,20.28V21h-5v-.73A37,37,0,0,1,19.56,20.28Z" transform="translate(0 -7.54)"/><path class="cls-4" d="M8.17,20.26V21A7.22,7.22,0,0,1,6,21v-.74Z" transform="translate(0 -7.54)"/><path class="cls-5" d="M3.21,13.33c.11-.23.18-.42.28-.59a.36.36,0,0,1,.26-.14c.6,0,1.2,0,1.83,0v.74Z" transform="translate(0 -7.54)"/><path class="cls-6" d="M30.3,18.62v1.09H29.22V18.62Z" transform="translate(0 -7.54)"/><path class="cls-5" d="M4,15.82a5,5,0,0,1,.33-.54.62.62,0,0,1,.33-.19c.31,0,.61,0,1,0v.74Z" transform="translate(0 -7.54)"/><path class="cls-7" d="M29.21,18.21v-.46h1.08c0,.13,0,.28,0,.46Z" transform="translate(0 -7.54)"/><path class="cls-7" d="M6.47,19.24H6v-.72h.52Z" transform="translate(0 -7.54)"/><path class="cls-8" d="M24.85,20.53c0,1.31-1,2.62-2.09,2.53a2.16,2.16,0,0,1-2.09-2.33c0-1.4,1-2.66,2.11-2.56A2.18,2.18,0,0,1,24.85,20.53Zm-.58.06a1.66,1.66,0,0,0-1.52-1.69,1.75,1.75,0,0,0-1.48,1.87,1.69,1.69,0,0,0,1.55,1.72A1.77,1.77,0,0,0,24.27,20.59Z" transform="translate(0 -7.54)"/><path class="cls-8" d="M13.41,20.54c0,1.32-1,2.62-2.1,2.52a2.15,2.15,0,0,1-2.07-2.35c0-1.4,1-2.65,2.12-2.54A2.18,2.18,0,0,1,13.41,20.54Zm-.57.08a1.69,1.69,0,0,0-1.5-1.72,1.75,1.75,0,0,0-1.51,1.89,1.69,1.69,0,0,0,1.52,1.7C12.13,22.51,12.82,21.63,12.84,20.62Z" transform="translate(0 -7.54)"/><path class="cls-2" d="M23.76,15.71c0-1.75,0-3.53.11-5.34a1.88,1.88,0,0,1,.31-.06l2.59,0a.53.53,0,0,1,.51.32c.73,1.25,1.46,2.48,2.2,3.72a2.44,2.44,0,0,1,.12,1.31A27,27,0,0,1,23.76,15.71ZM27.2,11.1c-.32-.59-.59-.66-1-.22-.66.75-1.31,1.51-2,2.28a.68.68,0,0,0-.19.34,11,11,0,0,0,0,1.71C25.24,13.89,26.17,12.45,27.2,11.1Zm2.14,4.32a2.85,2.85,0,0,0-.07-.83c-.25-.53-.55-1-.86-1.57L26.7,15.39a.49.49,0,0,0,0,.11Zm-5,0a.8.8,0,0,0,1-.33c.76-1.06,1.54-2.09,2.31-3.13a.74.74,0,0,0,.06-.18l-.31-.45Zm3.89-2.71c-.12-.22-.22-.38-.35-.58l-2.42,3.3c.37,0,.68.13.94-.23C27,14.42,27.61,13.61,28.24,12.75Zm-4.12,0a12,12,0,0,0,1.77-2.16,17.64,17.64,0,0,0-1.77.06Z" transform="translate(0 -7.54)"/><path class="cls-2" d="M24,16.43c0-.05.06-.14.09-.15a6,6,0,0,1,1.79.07c-.07.12-.11.24-.15.24-.57,0-1.13,0-1.7,0Z" transform="translate(0 -7.54)"/><path class="cls-2" d="M24.27,20.59a1.77,1.77,0,0,1-1.45,1.9,1.69,1.69,0,0,1-1.55-1.72,1.75,1.75,0,0,1,1.48-1.87A1.66,1.66,0,0,1,24.27,20.59Zm-1.49-1.38a1.43,1.43,0,0,0-1.27,1.52,1.33,1.33,0,0,0,1.26,1.45c.66,0,1.26-.71,1.27-1.52A1.38,1.38,0,0,0,22.78,19.21Z" transform="translate(0 -7.54)"/><path class="cls-2" d="M12.84,20.62c0,1-.71,1.89-1.49,1.87a1.69,1.69,0,0,1-1.52-1.7,1.75,1.75,0,0,1,1.51-1.89A1.69,1.69,0,0,1,12.84,20.62Zm-1.5,1.56a1.46,1.46,0,0,0,1.26-1.53,1.38,1.38,0,0,0-1.27-1.44,1.42,1.42,0,0,0-1.25,1.53A1.34,1.34,0,0,0,11.34,22.18Z" transform="translate(0 -7.54)"/><path class="cls-9" d="M27.2,11.1c-1,1.35-2,2.79-3.11,4.11a11,11,0,0,1,0-1.71.68.68,0,0,1,.19-.34c.65-.77,1.3-1.53,2-2.28C26.61,10.44,26.88,10.51,27.2,11.1Z" transform="translate(0 -7.54)"/><path class="cls-8" d="M29.34,15.42l-2.6.08a.49.49,0,0,1,0-.11L28.41,13c.31.55.61,1,.86,1.57A2.85,2.85,0,0,1,29.34,15.42Z" transform="translate(0 -7.54)"/><path class="cls-8" d="M24.35,15.46l3-4.09.31.45a.74.74,0,0,1-.06.18c-.77,1-1.55,2.07-2.31,3.13A.8.8,0,0,1,24.35,15.46Z" transform="translate(0 -7.54)"/><path class="cls-9" d="M28.24,12.75c-.63.86-1.24,1.67-1.83,2.49-.26.36-.57.25-.94.23l2.42-3.3C28,12.37,28.12,12.53,28.24,12.75Z" transform="translate(0 -7.54)"/><path class="cls-8" d="M24.12,12.77v-2.1a17.64,17.64,0,0,1,1.77-.06A12,12,0,0,1,24.12,12.77Z" transform="translate(0 -7.54)"/><path class="cls-10" d="M22.78,19.21A1.38,1.38,0,0,1,24,20.66c0,.81-.61,1.56-1.27,1.52a1.33,1.33,0,0,1-1.26-1.45A1.43,1.43,0,0,1,22.78,19.21Z" transform="translate(0 -7.54)"/><path class="cls-10" d="M11.34,22.18a1.34,1.34,0,0,1-1.26-1.44,1.42,1.42,0,0,1,1.25-1.53,1.38,1.38,0,0,1,1.27,1.44A1.46,1.46,0,0,1,11.34,22.18Z" transform="translate(0 -7.54)"/><text class="cls-11" transform="translate(12.44 4.62) scale(0.83 1)">24 H<tspan x="-2.73" y="3.32">Deli</tspan><tspan class="cls-12" x="3.11" y="3.32">v</tspan><tspan class="cls-13" x="4.73" y="3.32">e</tspan><tspan class="cls-14" x="6.58" y="3.32">r</tspan><tspan x="7.97" y="3.32">y</tspan></text></svg>