<svg id="Layer_1" data-name="Layer 1" xmlns="http://www.w3.org/2000/svg" viewBox="0 0 32 22.4"><defs><style>.cls-1{fill:#62acc5;}</style></defs><path class="cls-1" d="M12.27,4.8h8.16c.91,0,1.22.33,1.23,1.25s-.1.76.75.77c1.09,0,2.19,0,3.28,0A1.35,1.35,0,0,1,27,7.64c.67,1.4,1.4,2.76,2,4.16a15.8,15.8,0,0,0,2.23,3.47,3.22,3.22,0,0,1,.42.57,2.09,2.09,0,0,1,.28.84c0,2.12,0,4.24,0,6.36a1.06,1.06,0,0,1-1.2,1.16q-1.14,0-2.28,0a.53.53,0,0,0-.61.41,4,4,0,0,1-6.19,1.75,3.72,3.72,0,0,1-1.33-1.83.43.43,0,0,0-.47-.33c-1.76,0-3.51,0-5.27,0a.46.46,0,0,0-.49.36,4,4,0,0,1-6.43,1.61,4.09,4.09,0,0,1-1.11-1.64.44.44,0,0,0-.48-.33c-.62,0-1.24,0-1.86,0a5.25,5.25,0,0,1-.57-.05,1,1,0,0,1-.82-1.1.93.93,0,0,1,.94-.92q1.14,0,2.28,0a.46.46,0,0,0,.5-.34,4,4,0,0,1,7.54-.1.55.55,0,0,0,.61.44q2.54,0,5.07,0a.5.5,0,0,0,.56-.39,3.89,3.89,0,0,1,3.4-2.67A4,4,0,0,1,28,21.8a.4.4,0,0,0,.46.34c.41,0,.81,0,1.22,0,.21,0,.31-.07.31-.3,0-1.59,0-3.18,0-4.77a.58.58,0,0,0-.13-.35c-.38-.52-.77-1-1.19-1.53a.7.7,0,0,0-.48-.17H20.71a1,1,0,0,1-1.06-1.09V7.42c0-.55,0-.55-.52-.55H4.38a3.63,3.63,0,0,1-.57,0,1,1,0,0,1-.93-1.11A1,1,0,0,1,4,4.8Zm15,8.1a2.16,2.16,0,0,0-.08-.26c-.58-1.17-1.16-2.34-1.73-3.51A.42.42,0,0,0,25,8.89H22c-.3,0-.39.11-.39.4q0,1.62,0,3.24c0,.32.13.4.42.4h4.85ZM24.13,25.12a2,2,0,0,0,2-2,2,2,0,1,0-4,0A2,2,0,0,0,24.13,25.12Zm-13.74,0a2,2,0,0,0,0-4,2,2,0,0,0-2,2A2,2,0,0,0,10.39,25.12Z" transform="translate(0 -4.8)"/><path class="cls-1" d="M7,9c1.4,0,2.81,0,4.21,0a1,1,0,0,1,1,1.37.91.91,0,0,1-.69.65,2,2,0,0,1-.42,0H2.79A1,1,0,1,1,2.76,9C4.16,9,5.56,9,7,9Z" transform="translate(0 -4.8)"/><path class="cls-1" d="M5.31,15H1a.93.93,0,0,1-1-.7,1,1,0,0,1,.37-1.12A1.15,1.15,0,0,1,1,13c2.86,0,5.72,0,8.57,0a1,1,0,0,1,1.05,1,1,1,0,0,1-1.05,1Z" transform="translate(0 -4.8)"/><path class="cls-1" d="M4.94,19H2.76a1,1,0,0,1-1.1-.94,1,1,0,0,1,1-1.11,9.21,9.21,0,0,1,1,0H7a2.76,2.76,0,0,1,.57.06,1,1,0,0,1,.77,1.13.93.93,0,0,1-.94.88c-.81,0-1.61,0-2.41,0Z" transform="translate(0 -4.8)"/></svg>