<svg id="Layer_1" data-name="Layer 1" xmlns="http://www.w3.org/2000/svg" viewBox="0 0 32 32"><defs><style>.cls-1{fill:#62acc5;}</style></defs><path class="cls-1" d="M12.59,19.64h.79c.26,0,.29,0,.39.27a1.31,1.31,0,0,0,.65.79,1.81,1.81,0,0,0,.64.15c.6,0,1.19,0,1.79,0a1.86,1.86,0,0,0,.14-3.7,12.8,12.8,0,0,0-1.52,0,4.17,4.17,0,0,1-3.86-2.44,3.82,3.82,0,0,1,.47-4.12A3.93,3.93,0,0,1,14.66,9a.25.25,0,0,0,.24-.28c0-.51,0-1,0-1.53,0-.25.06-.32.32-.32h1.56c.24,0,.31.07.31.31V8.62c0,.3,0,.32.32.36a3.55,3.55,0,0,1,3.12,3.07c0,.23,0,.32-.27.33h-1.7a.31.31,0,0,1-.29-.22,1.35,1.35,0,0,0-1.48-1h-1.4a1.93,1.93,0,0,0-2,1.81,1.89,1.89,0,0,0,1.68,1.93c.57,0,1.14,0,1.72,0A4,4,0,0,1,18,22.83a4.37,4.37,0,0,1-.62.17.25.25,0,0,0-.24.28c0,.51,0,1,0,1.53,0,.3,0,.34-.34.34q-.78,0-1.56,0c-.24,0-.29,0-.29-.28V23.31c0-.21,0-.25-.24-.26a3.58,3.58,0,0,1-3.21-3.14c0-.18.06-.27.25-.27Z"/><path class="cls-1" d="M16,0A16,16,0,1,0,32,16,16,16,0,0,0,16,0Zm0,29.2A13.2,13.2,0,1,1,29.2,16,13.2,13.2,0,0,1,16,29.2Z"/></svg>