<svg id="Layer_1" data-name="Layer 1" xmlns="http://www.w3.org/2000/svg" viewBox="0 0 26.67 32"><defs><style>.cls-1{fill:#00c896;}</style></defs><path class="cls-1" d="M10.1,0c.26.06.53.11.78.19a6,6,0,0,1,4.3,4.26.45.45,0,0,0,.28.32l6.11,2.68a1.72,1.72,0,0,1,1,1Q25.86,17,29.2,25.58a1.49,1.49,0,0,1-.95,2.08l-8,3a.49.49,0,0,0-.34.33,1.51,1.51,0,0,1-1.51,1H4.28a1.52,1.52,0,0,1-1.61-1.57V12a1.56,1.56,0,0,1,.49-1.17L4.34,9.66a17.63,17.63,0,0,1-.88-1.89A6,6,0,0,1,8.29.05l.18,0ZM5,10.4c-.32.32-.68.69-1.06,1a.81.81,0,0,0-.26.64V30.32c0,.53.15.67.69.67H18.26c.56,0,.7-.13.7-.69q0-9.1,0-18.2a.87.87,0,0,0-.29-.68l-7.15-7c-.06-.07-.13-.13-.19-.19l.05.07L5.83,9.66a4.64,4.64,0,0,0,3,1.29,1.09,1.09,0,0,1,0-.18,2.53,2.53,0,1,1,.28,1.41A.3.3,0,0,0,8.8,12a5.3,5.3,0,0,1-2-.5C6.22,11.17,5.64,10.78,5,10.4Zm8.76-5.27s0,0,0,0,3.82,3.82,5.65,5.6A1.78,1.78,0,0,1,20,12.08q0,8.64,0,17.28v.32l.28-.09,7.52-2.8c.54-.21.64-.41.43-.94l-6.6-17a.82.82,0,0,0-.5-.51L14,5.23Zm.19-1C13.64,2.68,11.71,1.26,9.82,1A5.15,5.15,0,0,0,4.7,3.83a4.85,4.85,0,0,0,.48,5.05,2.23,2.23,0,0,1,.19-.24l5.47-5.37c.33-.32.43-.34.86-.15l.17.07ZM9.82,11l1.3-.37a.52.52,0,0,1,.69.29.5.5,0,0,1-.33.64c-.21.08-.43.14-.65.2s-.42.1-.65.15a1.51,1.51,0,0,0,1.91.35,1.48,1.48,0,0,0,.67-1.82,1.53,1.53,0,0,0-1.66-1A1.48,1.48,0,0,0,9.82,11Z" transform="translate(-2.67 0)"/><path class="cls-1" d="M11.32,25h6.19a.48.48,0,0,1,.43.47.48.48,0,0,1-.39.5,1.51,1.51,0,0,1-.3,0H5.42a1.51,1.51,0,0,1-.3,0,.46.46,0,0,1-.4-.51A.48.48,0,0,1,5.16,25h6.16Z" transform="translate(-2.67 0)"/><path class="cls-1" d="M11.35,28h5.89a1.92,1.92,0,0,1,.24,0,.5.5,0,0,1,.46.45.48.48,0,0,1-.39.53,1.22,1.22,0,0,1-.33,0H5.44a.86.86,0,0,1-.16,0c-.35,0-.57-.2-.56-.51S4.94,28,5.3,28Z" transform="translate(-2.67 0)"/><path class="cls-1" d="M11.31,23h-6c-.37,0-.58-.17-.59-.47A.48.48,0,0,1,5.13,22h12.1a1.46,1.46,0,0,1,.3,0,.47.47,0,0,1,.41.51.48.48,0,0,1-.44.46H11.31Z" transform="translate(-2.67 0)"/><path class="cls-1" d="M13.11,16.45l.63,2.71h0c.15-.59.29-1.18.44-1.77.06-.26.11-.52.19-.77a.28.28,0,0,1,.21-.17c.68,0,.53-.13.7.52l.48,1.88a.56.56,0,0,0,.13.27l.64-2.66.05,0c.67-.06.68-.05.51.58-.24.87-.48,1.75-.7,2.62A.38.38,0,0,1,16,20h-.16c-.42,0-.42,0-.52-.4-.17-.63-.33-1.27-.55-1.9-.08.33-.17.66-.25,1s-.17.72-.27,1.08c0,.08-.1.2-.17.2a2.73,2.73,0,0,1-.7,0c-.06,0-.15-.12-.17-.19-.27-1-.52-2.05-.78-3.08,0-.15,0-.22.16-.23Z" transform="translate(-2.67 0)"/><path class="cls-1" d="M5,19.94V16.77c0-.21.1-.31.32-.31h.27a.48.48,0,0,1,.54.3l1,2a.26.26,0,0,0,.13.12v-.62c0-.52,0-1,0-1.57,0-.25.15-.24.32-.24s.31,0,.31.24c0,1,0,2,0,3,0,.19-.09.23-.26.25a.76.76,0,0,1-.89-.5c-.35-.71-.74-1.4-1.15-2.16v2.35c0,.32,0,.34-.35.33A1.67,1.67,0,0,1,5,19.94Z" transform="translate(-2.67 0)"/><path class="cls-1" d="M11.35,16.47V17H10v.91h1.13v.52H10v1h1.34V20c-.65,0-1.29,0-1.93,0-.05,0-.14-.13-.14-.2,0-1,0-2,0-3,0-.17.08-.24.25-.24Z" transform="translate(-2.67 0)"/></svg>