<svg id="Layer_1" data-name="Layer 1" xmlns="http://www.w3.org/2000/svg" viewBox="0 0 32 30.58"><defs><style>.cls-1{fill:#62acc5;}</style></defs><path class="cls-1" d="M30.53,14.15a15.31,15.31,0,1,0-2,9.52l-2.05-2.05a12.5,12.5,0,1,1,1.2-7.47H26.24l1.61,2.18,1.27,1.73L30.64,16,32,14.15Z" transform="translate(0 -0.71)"/><path class="cls-1" d="M8.61,18.82c.87-.73,1.56-1.32,2.06-1.78A8.54,8.54,0,0,0,12,15.59a2.61,2.61,0,0,0,.52-1.48,1.32,1.32,0,0,0-.25-.86,1,1,0,0,0-.77-.31,1,1,0,0,0-.79.38,1.8,1.8,0,0,0-.29,1.08H8.17a3.79,3.79,0,0,1,.48-1.9,2.92,2.92,0,0,1,1.22-1.12A3.83,3.83,0,0,1,11.55,11a3.22,3.22,0,0,1,2.4.82A2.87,2.87,0,0,1,14.76,14a4.18,4.18,0,0,1-1,2.65A14.64,14.64,0,0,1,11.29,19H14.9v1.85H8.19V19.15Z" transform="translate(0 -0.71)"/><path class="cls-1" d="M16,19.24V17.4l4.22-6h2.56v5.9h1.09v2H22.74V21H20.45V19.24Zm4.65-5.36-2.24,3.39h2.24Z" transform="translate(0 -0.71)"/></svg>