<svg id="Layer_1" data-name="Layer 1" xmlns="http://www.w3.org/2000/svg" viewBox="0 0 32 32"><defs><style>.cls-1{fill:#ff2929;}.cls-2{fill:#fff;}</style></defs><circle class="cls-1" cx="16" cy="16" r="16"/><path class="cls-2" d="M8.19,21.08V15.86A5.79,5.79,0,0,0,9.4,16.92a.26.26,0,0,1,.09.19c0,.81,0,1.62,0,2.43v.19h8.44a.13.13,0,0,0,0-.05V10.89a.63.63,0,0,0-.49-.63,1.84,1.84,0,0,0-.41,0c-.09,0-.13,0-.18-.12-.2-.37-.41-.74-.62-1.11l-.07-.12c.45,0,.87,0,1.3,0a1.83,1.83,0,0,1,1.42.85A2.13,2.13,0,0,1,19.26,11v.64h1.37a3.26,3.26,0,0,1,3.06,2.49c0,.19.08.38.12.57v6.43H22.49a2.69,2.69,0,0,1-.2,1.36,2.42,2.42,0,0,1-.86,1,2.15,2.15,0,0,1-1.25.36A2.38,2.38,0,0,1,18,21.1H14a2.39,2.39,0,0,1-2,2.69,2.15,2.15,0,0,1-1.62-.43,2.43,2.43,0,0,1-.94-2.28Zm11.08-1.35h3.22V17H19.27Zm3.23-4.08c0-.25,0-.5,0-.75A1.94,1.94,0,0,0,21,13,11.94,11.94,0,0,0,19.29,13l0,0v2.68ZM11.77,21.09h-.64c-.31,0-.35.05-.34.37l0,.17a1,1,0,0,0,1.12.8,1,1,0,0,0,.79-1.19c0-.11-.06-.16-.17-.15C12.3,21.1,12,21.09,11.77,21.09Zm8.46,0c-.26,0-.52,0-.78,0s-.16.05-.18.16a1,1,0,0,0,.43,1,1,1,0,0,0,1.09,0,1.05,1.05,0,0,0,.39-1.05c0-.1-.06-.13-.16-.13Z" transform="translate(0 0)"/><path class="cls-2" d="M12.43,8.19c.25.06.5.09.74.16a4.12,4.12,0,0,1-.33,7.92,3.94,3.94,0,0,1-4.62-3.53.53.53,0,0,0,0-.12v-.7l0-.14a4,4,0,0,1,2.61-3.36,7.43,7.43,0,0,1,.93-.23ZM12.1,15a2.72,2.72,0,0,0,0-5.43,2.65,2.65,0,0,0-2.6,2.72A2.65,2.65,0,0,0,12.1,15Z" transform="translate(0 0)"/><path class="cls-2" d="M13.69,13l-.93,1c-.15-.17-.31-.34-.47-.5s-.51-.53-.76-.79a.27.27,0,0,1-.08-.16V10.24h1.29v.19c0,.45,0,.91,0,1.36a.39.39,0,0,0,.13.32C13.14,12.39,13.41,12.68,13.69,13Z" transform="translate(0 0)"/></svg>