<svg id="Layer_1" data-name="Layer 1" xmlns="http://www.w3.org/2000/svg" viewBox="0 0 32 23.04"><defs><style>.cls-1{fill:#62acc5;}</style></defs><path class="cls-1" d="M29.63,9h0V6.81a2.35,2.35,0,0,0-2.37-2.33H2.37A2.35,2.35,0,0,0,0,6.81V23.92H17a.78.78,0,1,0,0-1.55H1.58V10.51H28.05v2.14a.79.79,0,0,0,1.58,0V10.51h0Zm-28,0V7a1,1,0,0,1,1-1H27.06a1,1,0,0,1,1,1V9Z" transform="translate(0 -4.48)"/><rect class="cls-1" x="4.54" y="8.65" width="11.26" height="1.56" rx="0.78"/><rect class="cls-1" x="4.54" y="11.18" width="11.26" height="1.56" rx="0.78"/><rect class="cls-1" x="4.54" y="13.71" width="5.63" height="1.56" rx="0.78"/><path class="cls-1" d="M29.63,18.77V17.41a4.05,4.05,0,0,0-8.1,0v1.36H19.16v8.75H32V18.77Zm-6.52-1.36a2.47,2.47,0,0,1,4.94,0v1.36H23.11ZM30.42,26H20.74V20.33h9.68Z" transform="translate(0 -4.48)"/></svg>