<svg id="Layer_1" data-name="Layer 1" xmlns="http://www.w3.org/2000/svg" viewBox="0 0 32 32"><path d="M26.66,15.89c0-1.11-.08-2.21-.13-3.32a7,7,0,0,0-.35-2,2.65,2.65,0,0,0-1.73-1.7,6,6,0,0,0-1.51-.28c-1-.06-2-.12-2.93-.15-1.33,0-2.66-.06-4-.09v0c-.86,0-1.72,0-2.58,0-1.43.05-2.85.12-4.27.19A5.53,5.53,0,0,0,7.37,9a2.61,2.61,0,0,0-1.44,1.33,5.07,5.07,0,0,0-.44,1.87c-.07,1-.14,2-.15,3s0,2.29,0,3.44A14.39,14.39,0,0,0,5.68,21,2.5,2.5,0,0,0,7,22.82a4.11,4.11,0,0,0,.84.34,7.39,7.39,0,0,0,1.75.25c1.77.08,3.55.16,5.33.2,1.07,0,2.14,0,3.21,0,1.42,0,2.84-.1,4.27-.16a8.68,8.68,0,0,0,1.82-.26,2.64,2.64,0,0,0,2.08-2c0-.1,0-.2.07-.3.09-.75.22-1.51.27-2.27S26.68,16.79,26.66,15.89ZM13.84,19.21V12.79c1.83,1.06,3.62,2.13,5.46,3.21Z"/><path d="M27.43,32H4.57A4.58,4.58,0,0,1,0,27.43V4.57A4.58,4.58,0,0,1,4.57,0H27.43A4.58,4.58,0,0,1,32,4.57V27.43A4.58,4.58,0,0,1,27.43,32ZM4.57,1.52A3.06,3.06,0,0,0,1.52,4.57V27.43a3.06,3.06,0,0,0,3.05,3.05H27.43a3.06,3.06,0,0,0,3.05-3.05V4.57a3.06,3.06,0,0,0-3.05-3.05Z"/></svg>