<svg id="Layer_1" data-name="Layer 1" xmlns="http://www.w3.org/2000/svg" viewBox="0 0 32 32"><path d="M25.14,9.6c0,1.49,0,3,0,4.45A9.25,9.25,0,0,1,23,13.53a9.41,9.41,0,0,1-1.95-1c-.06,0-.06.06-.06.1v1.77c0,.08,0,.15,0,.23v3.75c0,.56,0,1.11,0,1.66A6.77,6.77,0,0,1,16.2,26.3a7.24,7.24,0,0,1-2.61.36,7.13,7.13,0,0,1-4.4-1.75c-.17-.15-.34-.29-.49-.44A4.06,4.06,0,0,1,8.26,24,6.31,6.31,0,0,1,7,21a6.45,6.45,0,0,1,1.73-5.62,7,7,0,0,1,3.76-2.09,7.12,7.12,0,0,1,1.9-.1l.36,0,.15,0,0,0v0s0,.1,0,.16c0,1.13,0,2.27,0,3.41a.08.08,0,0,1,0,0s0,0,0,0a.36.36,0,0,1-.23,0,3.25,3.25,0,0,0-3.34,1.22,2.75,2.75,0,0,0-.58,1.58,2.93,2.93,0,0,0,.55,1.94,1,1,0,0,0,.08.11c.19.17.37.35.57.5a3.2,3.2,0,0,0,1.94.68A3.15,3.15,0,0,0,17,20.71a2.57,2.57,0,0,0,.1-.73V5.84c0-.11,0-.21,0-.32s0-.18.21-.19h2.34c.23,0,.29,0,.36.27a4.71,4.71,0,0,0,1.25,2.29c.2.2.41.37.62.55l.42.34a1.1,1.1,0,0,0,.14.09,5.6,5.6,0,0,0,2.07.67l.5,0Z"/><path d="M27.43,32H4.57A4.58,4.58,0,0,1,0,27.43V4.57A4.58,4.58,0,0,1,4.57,0H27.43A4.58,4.58,0,0,1,32,4.57V27.43A4.58,4.58,0,0,1,27.43,32ZM4.57,1.52A3.06,3.06,0,0,0,1.52,4.57V27.43a3.06,3.06,0,0,0,3.05,3.05H27.43a3.06,3.06,0,0,0,3.05-3.05V4.57a3.06,3.06,0,0,0-3.05-3.05Z"/></svg>