<svg id="Layer_1" data-name="Layer 1" xmlns="http://www.w3.org/2000/svg" viewBox="0 0 34 34"><defs><style>.cls-1{fill:#fff;fill-rule:evenodd;}.cls-2{fill:none;stroke:#fff;stroke-miterlimit:10;stroke-width:2px;}</style></defs><path class="cls-1" d="M27.2,16.06A11.24,11.24,0,0,1,17.68,27.2V19h2.65c.11-.69.64-3.06.57-3.36a20.24,20.24,0,0,0-3.15-.06c0-.94,0-1.93,0-2.82,0-1.29,2.08-1.11,3.19-1.15V8.81c-3.67-.21-6.63-.26-6.86,3.75l0,3.09h-3L11,19l3,0s.08,7.06.09,8.19A11.26,11.26,0,1,1,27.2,16.06Z" transform="translate(1 1)"/><rect class="cls-2" x="1" y="1" width="32" height="32" rx="5"/></svg>