<svg id="Layer_1" data-name="Layer 1" xmlns="http://www.w3.org/2000/svg" viewBox="0 0 34 34"><defs><style>.cls-1{fill:#fff;}.cls-2{fill:none;stroke:#fff;stroke-miterlimit:10;stroke-width:2px;}</style></defs><path class="cls-1" d="M27.2,15.88c0-1.16-.09-2.32-.15-3.48a7,7,0,0,0-.36-2.07,2.75,2.75,0,0,0-1.82-1.78,5.66,5.66,0,0,0-1.58-.3c-1-.06-2.05-.12-3.08-.15C18.82,8.05,17.42,8,16,8V8c-.9,0-1.81,0-2.71,0-1.49,0-3,.12-4.48.19a5.77,5.77,0,0,0-1.89.37A2.7,2.7,0,0,0,5.43,10,5.32,5.32,0,0,0,5,12c-.07,1.06-.14,2.12-.15,3.19s0,2.41,0,3.61a13.81,13.81,0,0,0,.32,2.47,2.62,2.62,0,0,0,1.34,1.93,5.56,5.56,0,0,0,.88.35,7.64,7.64,0,0,0,1.84.26c1.86.08,3.73.17,5.59.21,1.12,0,2.25,0,3.37,0,1.5,0,3-.11,4.49-.17a9.56,9.56,0,0,0,1.91-.27,2.77,2.77,0,0,0,2.18-2.1,1.73,1.73,0,0,0,.07-.31c.1-.8.24-1.59.29-2.39S27.21,16.82,27.2,15.88ZM13.73,19.37V12.63L19.47,16Z" transform="translate(1 1)"/><rect class="cls-2" x="1" y="1" width="32" height="32" rx="5"/></svg>