<svg id="Layer_1" data-name="Layer 1" xmlns="http://www.w3.org/2000/svg" viewBox="0 0 34 34"><defs><style>.cls-1{fill:#fff;}.cls-2{fill:none;stroke:#fff;stroke-miterlimit:10;stroke-width:2px;}</style></defs><path class="cls-1" d="M25.59,9.28c0,1.56,0,3.11,0,4.67a9.57,9.57,0,0,1-2.29-.54,10.3,10.3,0,0,1-2-1c-.08,0-.07.06-.07.1v1.86c0,.08,0,.16,0,.24v3.94c0,.58,0,1.16,0,1.74a7.11,7.11,0,0,1-5,6.56,7.61,7.61,0,0,1-7.37-1.46l-.52-.46a5.57,5.57,0,0,1-.46-.51,6.89,6.89,0,0,1,.45-9,7.27,7.27,0,0,1,3.94-2.19,7.45,7.45,0,0,1,2-.11l.38,0,.15,0,0,0v0a1,1,0,0,1,0,.17v3.58l0,0a0,0,0,0,1,0,0,.66.66,0,0,1-.24,0,3.42,3.42,0,0,0-3.51,1.28,3,3,0,0,0-.61,1.66,3.08,3.08,0,0,0,.58,2l.09.12c.2.18.38.36.59.53a3.48,3.48,0,0,0,2,.71A3.31,3.31,0,0,0,17,20.94a2.78,2.78,0,0,0,.1-.76V5.33c0-.11,0-.22,0-.33s0-.19.22-.2h2.47c.24,0,.3,0,.37.28a4.91,4.91,0,0,0,1.32,2.41c.2.2.42.39.64.57l.45.36.14.1a5.94,5.94,0,0,0,2.18.7l.52,0Z" transform="translate(1 1)"/><rect class="cls-2" x="1" y="1" width="32" height="32" rx="5"/></svg>