<svg id="Layer_1" data-name="Layer 1" xmlns="http://www.w3.org/2000/svg" viewBox="0 0 32 32"><path d="M21,15.2a.38.38,0,0,1-.25-.36,8.12,8.12,0,0,0-.2-1.2,4,4,0,0,0-2.53-3,5.13,5.13,0,0,0-3.6,0,4.07,4.07,0,0,0-2.14,1.7l1.51,1a3,3,0,0,1,3.46-1,2.35,2.35,0,0,1,1.6,2.18h-.15a10.59,10.59,0,0,0-2.58-.09,5.41,5.41,0,0,0-2.64.87,3.35,3.35,0,0,0-.19,5.37,4.36,4.36,0,0,0,2.91.93,4.39,4.39,0,0,0,2.62-.81,4.75,4.75,0,0,0,1.74-2.88c.06-.24.1-.48.16-.75l.28.18a3.47,3.47,0,0,1,1.06,4.31,5,5,0,0,1-3.14,2.71,9,9,0,0,1-4.31.29,6.48,6.48,0,0,1-3.27-1.4,6.83,6.83,0,0,1-2.2-3.64,14.06,14.06,0,0,1-.39-5,10.82,10.82,0,0,1,.78-3.36,6.07,6.07,0,0,1,4.1-3.68,9.22,9.22,0,0,1,4.89,0,6.16,6.16,0,0,1,4.2,3.4c.25.51.43,1.05.65,1.61l1.76-.48c-.17-.48-.31-.94-.5-1.39A8.12,8.12,0,0,0,19.79,6a11,11,0,0,0-5.93-.38A7.86,7.86,0,0,0,9.44,8a9.29,9.29,0,0,0-2,3.8,15.71,15.71,0,0,0-.48,5.71A12.36,12.36,0,0,0,8.08,22a7.8,7.8,0,0,0,5.2,4.29,11.25,11.25,0,0,0,5.5.07,6.93,6.93,0,0,0,4.81-3.63A5.35,5.35,0,0,0,21,15.2Zm-2.69,3.45a2.53,2.53,0,0,1-2.6,1.05,2.2,2.2,0,0,1-1.28-.49,1.46,1.46,0,0,1,.23-2.44,4.09,4.09,0,0,1,1.26-.43,8.74,8.74,0,0,1,3,.14A4.75,4.75,0,0,1,18.32,18.65Z"/><path d="M27.43,32H4.57A4.58,4.58,0,0,1,0,27.43V4.57A4.58,4.58,0,0,1,4.57,0H27.43A4.58,4.58,0,0,1,32,4.57V27.43A4.58,4.58,0,0,1,27.43,32ZM4.57,1.52A3.06,3.06,0,0,0,1.52,4.57V27.43a3.06,3.06,0,0,0,3.05,3.05H27.43a3.06,3.06,0,0,0,3.05-3.05V4.57a3.06,3.06,0,0,0-3.05-3.05Z"/></svg>