<svg id="Layer_1" data-name="Layer 1" xmlns="http://www.w3.org/2000/svg" viewBox="0 0 34 34"><defs><style>.cls-1{fill:#fff;fill-rule:evenodd;}.cls-2{fill:none;stroke:#fff;stroke-miterlimit:10;stroke-width:2px;}</style></defs><path class="cls-1" d="M27,10.2A6,6,0,0,0,21.3,4.94a101.3,101.3,0,0,0-11,0,6,6,0,0,0-5.33,5.68A100.34,100.34,0,0,0,5,21.76a6,6,0,0,0,5.69,5.29,92.67,92.67,0,0,0,11.06,0,6,6,0,0,0,5.34-5.7A98.1,98.1,0,0,0,27,10.2ZM25.07,21.77c-.52,2.83-2.61,3.38-5.71,3.37-8.54,0-12.53,1.6-12.52-5.89,0-8.36-1.57-12.42,5.88-12.41,2.2,0,7.23-.26,9.1.09,2.83.54,3.32,2.67,3.32,5.79C25.14,14.86,25.4,20,25.07,21.77Z" transform="translate(1 1)"/><path class="cls-1" d="M22.53,11.2a1.26,1.26,0,1,1-1.09-2.28A1.26,1.26,0,0,1,22.53,11.2Z" transform="translate(1 1)"/><path class="cls-1" d="M14.86,10.09c-8,1.76-5.29,13.49,2.44,11.81S22.41,8.41,14.86,10.09Zm1.85,9.85c-5.13.89-6.63-6.91-1.36-7.84S21.76,19.05,16.71,19.94Z" transform="translate(1 1)"/><rect class="cls-2" x="1" y="1" width="32" height="32" rx="5"/></svg>