<svg id="Layer_1" data-name="Layer 1" xmlns="http://www.w3.org/2000/svg" viewBox="0 0 32 32"><defs><style>.cls-1{fill-rule:evenodd;}</style></defs><path class="cls-1" d="M26.67,16.06A10.72,10.72,0,0,1,17.6,26.67V18.86h2.52c.1-.66.61-2.92.55-3.2a18.49,18.49,0,0,0-3-.06c0-.89,0-1.84,0-2.68,0-1.24,2-1.06,3-1.1V9.15c-3.49-.19-6.31-.24-6.53,3.57l0,2.95H11.3l0,3.15,2.89,0s.07,6.72.08,7.8A10.72,10.72,0,1,1,26.67,16.06Z"/><path d="M27.43,32H4.57A4.58,4.58,0,0,1,0,27.43V4.57A4.58,4.58,0,0,1,4.57,0H27.43A4.58,4.58,0,0,1,32,4.57V27.43A4.58,4.58,0,0,1,27.43,32ZM4.57,1.52A3.06,3.06,0,0,0,1.52,4.57V27.43a3.06,3.06,0,0,0,3.05,3.05H27.43a3.06,3.06,0,0,0,3.05-3.05V4.57a3.06,3.06,0,0,0-3.05-3.05Z"/></svg>