<svg id="Layer_1" data-name="Layer 1" xmlns="http://www.w3.org/2000/svg" viewBox="0 0 34 34"><defs><style>.cls-1{fill:#fff;}.cls-2{fill:none;stroke:#fff;stroke-miterlimit:10;stroke-width:2px;}</style></defs><path class="cls-1" d="M21.26,15.16a.4.4,0,0,1-.26-.38,7.71,7.71,0,0,0-.21-1.26,4.21,4.21,0,0,0-2.66-3.15,5.4,5.4,0,0,0-3.78,0,4.33,4.33,0,0,0-2.25,1.78l1.59,1.09a3.19,3.19,0,0,1,3.63-1.05A2.49,2.49,0,0,1,19,14.45a.85.85,0,0,1-.16,0,11.17,11.17,0,0,0-2.71-.1,5.57,5.57,0,0,0-2.77.92,3.51,3.51,0,0,0-.21,5.63,4.57,4.57,0,0,0,3.06,1A4.66,4.66,0,0,0,19,21a5,5,0,0,0,1.83-3c.06-.25.11-.51.16-.8l.3.2a3.65,3.65,0,0,1,1.12,4.52,5.31,5.31,0,0,1-3.3,2.85,9.53,9.53,0,0,1-4.53.3,6.85,6.85,0,0,1-3.44-1.47A7.26,7.26,0,0,1,8.8,19.79a15,15,0,0,1-.41-5.25A11.52,11.52,0,0,1,9.22,11a6.36,6.36,0,0,1,4.3-3.87,9.74,9.74,0,0,1,5.14,0,6.52,6.52,0,0,1,4.41,3.58c.26.53.44,1.1.68,1.69l1.85-.51c-.18-.5-.33-1-.53-1.45a8.48,8.48,0,0,0-5.09-5,11.49,11.49,0,0,0-6.23-.4A8.27,8.27,0,0,0,9.11,7.59a9.72,9.72,0,0,0-2.13,4,16.83,16.83,0,0,0-.51,6A12.93,12.93,0,0,0,7.69,22.3a8.15,8.15,0,0,0,5.46,4.5,11.86,11.86,0,0,0,5.77.08,7.3,7.3,0,0,0,5-3.82,5.61,5.61,0,0,0-.19-5.78A5.54,5.54,0,0,0,21.26,15.16Zm-2.82,3.63a2.69,2.69,0,0,1-2.74,1.1,2.35,2.35,0,0,1-1.34-.52,1.52,1.52,0,0,1,.25-2.56,3.9,3.9,0,0,1,1.32-.45,9.12,9.12,0,0,1,3.16.14A5,5,0,0,1,18.44,18.79Z" transform="translate(1 1)"/><rect class="cls-2" x="1" y="1" width="32" height="32" rx="5"/></svg>