<svg id="Layer_1" data-name="Layer 1" xmlns="http://www.w3.org/2000/svg" viewBox="0 0 34 34"><defs><style>.cls-1{fill:#fff;}.cls-2{fill:none;stroke:#fff;stroke-miterlimit:10;stroke-width:2px;}</style></defs><path class="cls-1" d="M24.37,4.8H7.6A2.66,2.66,0,0,0,4.8,7.59v16.8A2.67,2.67,0,0,0,7.62,27.2H24.39a2.67,2.67,0,0,0,2.81-2.81V7.62A2.67,2.67,0,0,0,24.37,4.8ZM11.72,23.45H8.55V13.35h3.17Zm0-12.82a1.58,1.58,0,0,1-1.57,1,1.55,1.55,0,0,1-1.59-1.09.9.9,0,0,1,0-.23A1.49,1.49,0,0,1,10.14,9a1.49,1.49,0,0,1,1.61,1.32A1.35,1.35,0,0,1,11.71,10.63ZM23.47,23.16v.29h-3.2v-.28c0-1.65,0-3.3,0-5a3,3,0,0,0-.09-.79,1.82,1.82,0,0,0-3.58.13,4,4,0,0,0-.05.69c0,1.63,0,3.27,0,4.9v.31H13.35V13.36h3.17v1.32l.23-.21A4.1,4.1,0,0,1,22,14.15a4,4,0,0,1,1.37,2.74A10.05,10.05,0,0,1,23.46,18C23.47,19.71,23.47,21.43,23.47,23.16Z" transform="translate(1 1)"/><rect class="cls-2" x="1" y="1" width="32" height="32" rx="5"/></svg>