<svg id="Layer_1" data-name="Layer 1" xmlns="http://www.w3.org/2000/svg" viewBox="0 0 32 32"><path d="M24,5.33H8A2.55,2.55,0,0,0,5.33,8V24A2.55,2.55,0,0,0,8,26.67H24A2.55,2.55,0,0,0,26.67,24V8A2.55,2.55,0,0,0,24,5.33Zm-12,17.76h-3V13.47h3Zm0-12.21a1.48,1.48,0,0,1-1.49,1,1.47,1.47,0,0,1-1.51-1,.83.83,0,0,1,0-.22,1.42,1.42,0,0,1,1.54-1.26A1.42,1.42,0,0,1,12,10.62.75.75,0,0,1,11.91,10.88Zm11.2,11.94v.28H20.06v-.27c0-1.57,0-3.15,0-4.72a3.14,3.14,0,0,0-.09-.75,1.73,1.73,0,0,0-3.41.12,4.62,4.62,0,0,0,0,.65v5h-3V13.48h3v1.26a2.15,2.15,0,0,0,.21-.2,3.92,3.92,0,0,1,5-.3,3.84,3.84,0,0,1,1.31,2.61,9.05,9.05,0,0,1,.05,1Z"/><path d="M27.43,32H4.57A4.58,4.58,0,0,1,0,27.43V4.57A4.58,4.58,0,0,1,4.57,0H27.43A4.58,4.58,0,0,1,32,4.57V27.43A4.58,4.58,0,0,1,27.43,32ZM4.57,1.52A3.06,3.06,0,0,0,1.52,4.57V27.43a3.06,3.06,0,0,0,3.05,3.05H27.43a3.06,3.06,0,0,0,3.05-3.05V4.57a3.06,3.06,0,0,0-3.05-3.05Z"/></svg>