<svg id="Layer_1" data-name="Layer 1" xmlns="http://www.w3.org/2000/svg" viewBox="0 0 30.79 32"><defs><style>.cls-1{fill:#ff6b6b;}</style></defs><path class="cls-1" d="M9.63,11.92l-.69,1.54a11,11,0,0,1-3.46,4.41C4.05,19,2.65,20.13,1.21,21.23a1.31,1.31,0,0,0-.53,1.55,9.8,9.8,0,0,0,4.4,5.71A1.47,1.47,0,0,0,7,28.33C8.43,27.11,9.93,26,11.4,24.82a12.08,12.08,0,0,1,5.78-2.36l.68-.13c-.86-.61-1.67-1.2-2.5-1.75-.13-.08-.38,0-.56,0a12.68,12.68,0,0,0-4.16,2.07c-1,.78-1.62.7-2.44-.33-.35-.43-.7-.86-1-1.3a1.33,1.33,0,0,1,.24-2,13.73,13.73,0,0,0,3.16-3.71,1,1,0,0,0,.06-1C10.27,13.6,10,12.8,9.63,11.92Z" transform="translate(-0.61 0)"/><path class="cls-1" d="M13,8.57a7,7,0,0,1,1.67.75,16.87,16.87,0,0,1,6,6.5,8.48,8.48,0,0,1,1.27,4.25,1.74,1.74,0,0,1-2.39,1.85A8.93,8.93,0,0,1,17,20.73a17.45,17.45,0,0,1-5.35-6.13,9.34,9.34,0,0,1-1.24-3.78C10.35,8.9,11.38,8.1,13,8.57Zm6,6.88a15.38,15.38,0,0,0-5.1-5.17,5.12,5.12,0,0,0-1.41-.58c-.71-.17-.93,0-.95.78a6.74,6.74,0,0,0,1,3.3,16.07,16.07,0,0,0,5.64,6.32,6,6,0,0,0,1.34.6c.92.31,1.18.09,1.16-1.19A9.6,9.6,0,0,0,19,15.45Z" transform="translate(-0.61 0)"/><path class="cls-1" d="M24,2.35,19.43,0l-.8,10.34.15.07Z" transform="translate(-0.61 0)"/><path class="cls-1" d="M31.39,15.68l-.73-5.38L22.46,15v.16Z" transform="translate(-0.61 0)"/><path class="cls-1" d="M10.08,26.92,7.77,28.75c.8,1,1.55,2,2.37,2.89a1.17,1.17,0,0,0,1.62.07c.69-.5,1.35-1,2-1.57a.88.88,0,0,0,.18-1.27.93.93,0,0,0-1.21-.29c-1,.4-1,.4-1.67-.42C10.74,27.77,10.43,27.37,10.08,26.92Z" transform="translate(-0.61 0)"/><path class="cls-1" d="M20.83,12.65l3.64-1.91-1.57-2-2.17,3.8Z" transform="translate(-0.61 0)"/><path class="cls-1" d="M13.56,13.93A16.75,16.75,0,0,0,16.82,18a2.38,2.38,0,0,0,0-3.3A2.4,2.4,0,0,0,13.56,13.93Z" transform="translate(-0.61 0)"/></svg>