<svg id="Layer_1" data-name="Layer 1" xmlns="http://www.w3.org/2000/svg" viewBox="0 0 29.56 32"><defs><style>.cls-1{fill:#00a38c;}</style></defs><path class="cls-1" d="M10.61,2.2c2.13,0,1.47.2,3.16-1,.36-.26.72-.53,1.09-.78a1.89,1.89,0,0,1,2.32,0c.69.47,1.36,1,2,1.46a1.62,1.62,0,0,0,1.05.35h2.4a1.91,1.91,0,0,1,2,1.44c.26.77.52,1.54.77,2.31a1.62,1.62,0,0,0,.63.87c.67.48,1.33,1,2,1.46a1.9,1.9,0,0,1,.75,2.2q-.33,1.13-.72,2.22a2,2,0,0,0,0,1.4c.23.66.45,1.33.66,2a2,2,0,0,1-.83,2.62c-.54.4-1.1.79-1.65,1.19-.36.26-.37.31-.15.68l3.75,6.49a1.91,1.91,0,0,1,.16.32.73.73,0,0,1-.73,1.07,8,8,0,0,1-1.18-.19c-.79-.14-1.57-.29-2.35-.46a.47.47,0,0,0-.62.37c-.34,1-.69,2.06-1.06,3.09a1.4,1.4,0,0,1-.33.55.74.74,0,0,1-1.14-.24c-.45-.74-.87-1.49-1.31-2.25-.7-1.22-1.4-2.44-2.11-3.66-.24-.41-.28-.42-.65-.14l-1.25.9a1.92,1.92,0,0,1-2.38,0c-.44-.29-.85-.61-1.27-.92s-.46-.3-.71.13l-3,5.26a7.56,7.56,0,0,1-.44.71.75.75,0,0,1-1.31-.11A2.32,2.32,0,0,1,8,31.08c-.33-1-.67-1.93-1-2.9a.45.45,0,0,0-.61-.37c-1,.21-2,.39-2.94.57L3,28.46a.79.79,0,0,1-.82-.31.83.83,0,0,1,0-.92L3,25.85C4,24.07,5,22.28,6,20.51A.36.36,0,0,0,5.92,20c-.63-.44-1.24-.9-1.86-1.34a1.89,1.89,0,0,1-.77-2.23c.23-.77.48-1.54.74-2.31A1.85,1.85,0,0,0,4,12.8c-.25-.74-.48-1.48-.72-2.22a1.92,1.92,0,0,1,.75-2.32c.65-.49,1.3-1,2-1.43A1.66,1.66,0,0,0,6.67,6c.25-.78.5-1.56.76-2.34A1.91,1.91,0,0,1,9.37,2.2Zm10.8,21.67h1.17a1.2,1.2,0,0,0,1.34-1c.26-.75.51-1.51.75-2.27a2.31,2.31,0,0,1,.88-1.22c.64-.45,1.26-.91,1.89-1.37A1.27,1.27,0,0,0,28,16.37c-.23-.72-.46-1.44-.7-2.16a2.41,2.41,0,0,1,0-1.57c.24-.74.49-1.49.72-2.25a1.24,1.24,0,0,0-.54-1.56c-.63-.45-1.25-.92-1.89-1.37a2.39,2.39,0,0,1-.91-1.27c-.23-.74-.46-1.48-.72-2.22a1.21,1.21,0,0,0-1.37-1H20.31a2.49,2.49,0,0,1-1.61-.54q-.91-.69-1.86-1.35a1.17,1.17,0,0,0-1.61,0L13.31,2.52A2.33,2.33,0,0,1,11.82,3H9.46A1.2,1.2,0,0,0,8.14,4L7.36,6.36a2,2,0,0,1-.73,1c-.68.48-1.35,1-2,1.47a1.2,1.2,0,0,0-.51,1.62c.25.79.55,1.57.75,2.38a2.73,2.73,0,0,1,0,1.27c-.19.78-.48,1.55-.73,2.32A1.22,1.22,0,0,0,4.6,18c.65.47,1.29.95,2,1.41a2.2,2.2,0,0,1,.83,1.13c.26.79.52,1.58.79,2.37a1.18,1.18,0,0,0,1.29.93h2.43a2.2,2.2,0,0,1,1.37.44c.65.48,1.3,1,2,1.42a1.19,1.19,0,0,0,1.64,0,11.17,11.17,0,0,0,1-.75A4,4,0,0,1,21.41,23.87Zm7.7,3.75.07-.08L25.47,21.1l-.11,0c-.23.71-.46,1.41-.7,2.11a2,2,0,0,1-2,1.43H20.14c-.5,0-.56.11-.31.55l3.24,5.62a2.49,2.49,0,0,0,.19.23c.06-.14.11-.23.14-.32.35-1,.71-2,1.06-3.05.24-.69.49-.84,1.2-.71l3,.59A3,3,0,0,0,29.11,27.62Zm-22.4-6.5h-.1L2.88,27.56l.07.08c.13,0,.26,0,.39-.06L6.48,27a.83.83,0,0,1,1.12.65c.35,1,.69,2,1,3a4.66,4.66,0,0,0,.2.43l.26-.38c.19-.32.38-.65.56-1l2.64-4.55c.19-.32.13-.43-.25-.46h-.4c-.77,0-1.55,0-2.33,0a1.93,1.93,0,0,1-1.88-1.37c-.21-.61-.4-1.23-.6-1.84C6.8,21.34,6.76,21.23,6.71,21.12Z" transform="translate(-1.22)"/><path class="cls-1" d="M1.22,9.88A4,4,0,0,1,2.84,6.73a5.39,5.39,0,0,1,.63-.43A.36.36,0,0,1,4,6.39a.39.39,0,0,1-.09.54c-.32.27-.68.51-1,.8a2.88,2.88,0,0,0-.76,3.09c.21.73.46,1.46.7,2.19a.89.89,0,0,1,.08.35c0,.14-.12.35-.23.38s-.31-.08-.46-.14a.2.2,0,0,1-.06-.11c-.33-1.11-.65-2.21-1-3.32A2.83,2.83,0,0,1,1.22,9.88Z" transform="translate(-1.22)"/><path class="cls-1" d="M30.78,24.88c0,.35-.31.54-.56.38A.88.88,0,0,1,30,25c-.43-.74-.85-1.48-1.27-2.22a.44.44,0,0,1-.1-.24c0-.14.06-.33.16-.39a.52.52,0,0,1,.42,0,.87.87,0,0,1,.26.33c.41.69.8,1.38,1.2,2.08C30.71,24.7,30.75,24.81,30.78,24.88Z" transform="translate(-1.22)"/><path class="cls-1" d="M5,4.75c.22-.66.41-1.27.64-1.85a.5.5,0,0,1,.43-.17.56.56,0,0,1,.24.43,6.21,6.21,0,0,1-.29,1,2.92,2.92,0,0,1-.28.71.5.5,0,0,1-.43.17C5.19,5.05,5.1,4.86,5,4.75Z" transform="translate(-1.22)"/><path class="cls-1" d="M28.06,20.68a.51.51,0,0,1,.53.55.34.34,0,0,1-.37.34.5.5,0,0,1-.43-.56C27.83,20.86,28,20.75,28.06,20.68Z" transform="translate(-1.22)"/><path class="cls-1" d="M7.75,13.42A8.3,8.3,0,1,1,16,21.74,8.26,8.26,0,0,1,7.75,13.42Zm.8,0a7.5,7.5,0,1,0,7.54-7.48A7.51,7.51,0,0,0,8.55,13.41Z" transform="translate(-1.22)"/><path class="cls-1" d="M25.35,9.24c-.08.1-.16.26-.26.29a.57.57,0,0,1-.42-.1A1.54,1.54,0,0,1,24.4,9a9.85,9.85,0,0,0-3.87-3.89.53.53,0,0,1-.24-.16.59.59,0,0,1-.08-.39.58.58,0,0,1,.36-.24.62.62,0,0,1,.33.11,10,10,0,0,1,4.31,4.44C25.26,9,25.29,9.08,25.35,9.24Z" transform="translate(-1.22)"/><path class="cls-1" d="M19.23,4.51a3.5,3.5,0,0,1-.75-.28.46.46,0,0,1-.18-.4.49.49,0,0,1,.39-.26,1.22,1.22,0,0,1,.65.18.54.54,0,0,1,.23.44C19.55,4.31,19.34,4.41,19.23,4.51Z" transform="translate(-1.22)"/><path class="cls-1" d="M13.1,16.5c.08-.49.16-1,.27-1.58a.69.69,0,0,0-.22-.69c-.36-.34-.71-.7-1.06-1.06a.87.87,0,0,1-.28-.93.82.82,0,0,1,.77-.54c.49-.07,1-.15,1.48-.21a.62.62,0,0,0,.55-.41l.7-1.4a.76.76,0,0,1,.69-.5.78.78,0,0,1,.76.46c.23.43.47.88.67,1.33a.81.81,0,0,0,.75.54c.43,0,.86.11,1.29.18s.7.17.82.58a.9.9,0,0,1-.33,1l-1,1a.62.62,0,0,0-.22.65c.1.49.16,1,.26,1.48a.84.84,0,0,1-.31.92.8.8,0,0,1-.91,0c-.44-.22-.89-.45-1.32-.69a.71.71,0,0,0-.73,0c-.47.26-.95.53-1.45.75A.78.78,0,0,1,13.1,16.5Zm5,0a4.1,4.1,0,0,0,0-.41c-.07-.47-.13-.94-.22-1.41a.82.82,0,0,1,.26-.81l.95-.89.37-.4L19,12.46c-.46-.07-.92-.16-1.38-.22a.87.87,0,0,1-.76-.55c-.2-.44-.42-.86-.64-1.28-.05-.1-.12-.2-.21-.35l-.21.38c-.22.43-.44.87-.65,1.31a.77.77,0,0,1-.63.47c-.49.06-1,.13-1.45.21a3.6,3.6,0,0,0-.43.1l.29.32,1,1a.88.88,0,0,1,.27.85c-.09.45-.17.92-.24,1.38,0,.12,0,.25,0,.44l.39-.15c.43-.22.86-.42,1.28-.65a.84.84,0,0,1,.88,0c.4.23.82.44,1.23.65C17.83,16.4,17.94,16.43,18.11,16.49Z" transform="translate(-1.22)"/></svg>