<svg id="Layer_1" data-name="Layer 1" xmlns="http://www.w3.org/2000/svg" viewBox="0 0 32 19.83"><defs><style>.cls-1{fill:#ff8540;}</style></defs><path class="cls-1" d="M27.44,13.91c-.44.38-.71.59-1,.83l-10,10c-1.56,1.56-2.61,1.56-4.16,0S9.44,21.89,8,20.44c-.41-.43-.71-.45-1.12,0-.95,1-1.94,2-2.92,2.92a2.24,2.24,0,0,1-3.33.14,2.22,2.22,0,0,1,.17-3.27q2.44-2.47,4.92-4.92a2.22,2.22,0,0,1,3.44,0c1.53,1.5,3.05,3,4.54,4.54.49.51.82.58,1.35,0,2.8-2.85,5.64-5.67,8.46-8.51.18-.17.32-.37.59-.69-.41-.06-.67-.11-.93-.12-1.07,0-2.14,0-3.21,0a2.17,2.17,0,0,1-2.24-2,2.17,2.17,0,0,1,1.92-2.43,4.74,4.74,0,0,1,.84,0H29.2A2.44,2.44,0,0,1,32,8.85q0,4.44,0,8.87a3.92,3.92,0,0,1-.17,1.13,2.19,2.19,0,0,1-4.27-.5c-.05-1.07,0-2.14,0-3.21C27.52,14.82,27.48,14.49,27.44,13.91Z" transform="translate(0 -6.09)"/></svg>